<?xml version="1.0" encoding="UTF-8" standalone="no"?>
<!-- Created with Inkscape (http://www.inkscape.org/) -->

<svg
   width="84.666664mm"
   height="127mm"
   viewBox="0 0 84.666664 127"
   version="1.1"
   id="svg1"
   xml:space="preserve"
   xmlns="http://www.w3.org/2000/svg"
   xmlns:svg="http://www.w3.org/2000/svg"><defs
     id="defs1" /><g
     id="layer2"><path
       style="fill:#80e5ff;stroke-width:0.264583"
       id="path1"
       d="M 41.483292,44.422962 21.96648,33.154926 l -1e-6,-22.536074 19.516812,-11.26803718 19.516813,11.26803618 0,22.536074 z"
       transform="matrix(1.0885791,0,0,0.95111169,-2.4843209,0.62933335)" /><path
       style="fill:#55ddff;stroke-width:0.264583"
       id="path1-8"
       d="M 41.483292,44.422962 21.96648,33.154926 l -1e-6,-22.536074 19.516812,-11.26803718 19.516813,11.26803618 0,22.536074 z"
       transform="matrix(1.0933721,0,0,0.95111169,-24.074891,32.264306)" /><path
       style="fill:#55ddff;stroke-width:0.264583"
       id="path1-8-7"
       d="M 41.483292,44.422962 21.96648,33.154926 l -1e-6,-22.536074 19.516812,-11.26803718 19.516813,11.26803618 0,22.536074 z"
       transform="matrix(1.0885791,0,0,0.95111169,18.685667,-31.264843)" /><path
       style="fill:#55ddff;stroke-width:0.264583"
       id="path1-8-1"
       d="M 41.483292,44.422962 21.96648,33.154926 l -1e-6,-22.536074 19.516812,-11.26803718 19.516813,11.26803618 0,22.536074 z"
       transform="matrix(1.0885791,0,0,0.95111169,18.553375,95.867449)" /><path
       style="fill:#80e5ff;stroke-width:0.264583"
       id="path1-7"
       d="M 41.483292,44.422962 21.96648,33.154926 l -1e-6,-22.536074 19.516812,-11.26803718 19.516813,11.26803618 0,22.536074 z"
       transform="matrix(1.0885791,0,0,0.95111169,-2.4112653,64.022716)" /><path
       style="fill:#87decd;stroke-width:0.264583"
       id="path1-7-2"
       d="M 41.483292,44.422962 21.96648,33.154926 l -1e-6,-22.536074 19.516812,-11.26803718 19.516813,11.26803618 0,22.536074 z"
       transform="matrix(1.0885791,0,0,0.95111169,18.275202,32.654859)" /><path
       style="fill:#87decd;stroke-width:0.264583"
       id="path1-7-2-4"
       d="M 41.483292,44.422962 21.96648,33.154926 l -1e-6,-22.536074 19.516812,-11.26803718 19.516813,11.26803618 0,22.536074 z"
       transform="matrix(1.0976086,0,0,0.95624813,-24.112223,96.054115)" /><path
       style="fill:#87decd;stroke-width:0.264583"
       id="path1-7-2-4-5"
       d="M 41.483292,44.422962 21.96648,33.154926 l -1e-6,-22.536074 19.516812,-11.26803718 19.516813,11.26803618 0,22.536074 z"
       transform="matrix(1.0885791,0,0,0.95111169,-23.715266,-31.526283)" /><path
       style="fill:#5fd3bc;stroke-width:0.264583"
       id="path1-7-2-4-5-8"
       d="M 41.483292,44.422962 21.96648,33.154926 l -1e-6,-22.536074 19.516812,-11.26803718 19.516813,11.26803618 0,22.536074 z"
       transform="matrix(1.0885791,0,0,0.95111169,39.695196,0.64533521)" /><path
       style="fill:#5fd3bc;stroke-width:0.264583"
       id="path1-7-2-4-5-8-9"
       d="M 41.483292,44.422962 21.96648,33.154926 l -1e-6,-22.536074 19.516812,-11.26803718 19.516813,11.26803618 0,22.536074 z"
       transform="matrix(1.0885791,0,0,0.95111169,-44.952308,0.6213395)" /><path
       style="fill:#5fd3bc;stroke-width:0.264583"
       id="path1-7-2-4-5-8-9-1"
       d="M 41.483292,44.422962 21.96648,33.154926 l -1e-6,-22.536074 19.516812,-11.26803718 19.516813,11.26803618 0,22.536074 z"
       transform="matrix(1.0885791,0,0,0.95111169,-44.856995,64.00752)" /><path
       style="fill:#5fd3bc;stroke-width:0.264583"
       id="path1-7-2-4-5-8-9-1-4"
       d="M 41.483292,44.422962 21.96648,33.154926 l -1e-6,-22.536074 19.516812,-11.26803718 19.516813,11.26803618 0,22.536074 z"
       transform="matrix(1.0885791,0,0,0.95111169,39.890494,64.486136)" /></g></svg>
